<svg width="64" height="64" viewBox="0 0 64 64" fill="none" xmlns="http://www.w3.org/2000/svg">
  <defs>
    <linearGradient id="bg1" x1="0%" y1="0%" x2="100%" y2="100%">
      <stop offset="0%" style="stop-color:#0ea5e9;stop-opacity:1" />
      <stop offset="100%" style="stop-color:#0284c7;stop-opacity:1" />
    </linearGradient>
    <linearGradient id="skin1" x1="0%" y1="0%" x2="100%" y2="100%">
      <stop offset="0%" style="stop-color:#fde68a;stop-opacity:1" />
      <stop offset="100%" style="stop-color:#fbbf24;stop-opacity:1" />
    </linearGradient>
    <linearGradient id="hair1" x1="0%" y1="0%" x2="100%" y2="100%">
      <stop offset="0%" style="stop-color:#78350f;stop-opacity:1" />
      <stop offset="100%" style="stop-color:#451a03;stop-opacity:1" />
    </linearGradient>
  </defs>
  <circle cx="32" cy="32" r="32" fill="url(#bg1)"/>
  
  <!-- Face Shape - More realistic oval -->
  <ellipse cx="32" cy="30" rx="12" ry="15" fill="url(#skin1)"/>
  
  <!-- Hair - Natural shoulder-length -->
  <path d="M20 16c0-6 4-10 12-10s12 4 12 10c0 2-1 4-2 6l-1 2c-1 1-2 1-3 1s-2 0-3-1l-1-2c-1-2-2-4-2-6z" fill="url(#hair1)"/>
  <path d="M22 22c0-2 2-3 10-3s10 1 10 3" stroke="#451a03" stroke-width="0.8" fill="none"/>
  
  <!-- Eyes - More natural shape -->
  <ellipse cx="27" cy="27" rx="2" ry="2.5" fill="#ffffff"/>
  <ellipse cx="37" cy="27" rx="2" ry="2.5" fill="#ffffff"/>
  <ellipse cx="27" cy="27" rx="1.2" ry="1.5" fill="#374151"/>
  <ellipse cx="37" cy="27" rx="1.2" ry="1.5" fill="#374151"/>
  <ellipse cx="27.3" cy="26.5" rx="0.4" ry="0.5" fill="#ffffff"/>
  <ellipse cx="37.3" cy="26.5" rx="0.4" ry="0.5" fill="#ffffff"/>
  
  <!-- Eyebrows - Subtle and natural -->
  <path d="M25 24c0.5-0.5 1.5-0.5 2 0" stroke="#78350f" stroke-width="1" fill="none" stroke-linecap="round"/>
  <path d="M35 24c0.5-0.5 1.5-0.5 2 0" stroke="#78350f" stroke-width="1" fill="none" stroke-linecap="round"/>
  
  <!-- Nose - Subtle shadow -->
  <ellipse cx="32" cy="30" rx="0.8" ry="1.5" fill="#fbbf24" opacity="0.3"/>
  
  <!-- Lips - Natural color and shape -->
  <ellipse cx="32" cy="34" rx="1.5" ry="0.8" fill="#dc2626" opacity="0.8"/>
  
  <!-- Professional Blouse -->
  <path d="M22 46c0-5 4-10 10-10s10 5 10 10v4H22v-4z" fill="#ffffff"/>
  <path d="M25 46c0-3 2-6 7-6s7 3 7 6v2H25v-2z" fill="#f8fafc"/>
  
  <!-- Subtle necklace -->
  <circle cx="32" cy="44" r="0.8" fill="#0ea5e9" opacity="0.6"/>
</svg>
