<svg width="64" height="64" viewBox="0 0 64 64" fill="none" xmlns="http://www.w3.org/2000/svg">
  <defs>
    <linearGradient id="bg2" x1="0%" y1="0%" x2="100%" y2="100%">
      <stop offset="0%" style="stop-color:#8b5cf6;stop-opacity:1" />
      <stop offset="100%" style="stop-color:#6d28d9;stop-opacity:1" />
    </linearGradient>
    <linearGradient id="skin2" x1="0%" y1="0%" x2="100%" y2="100%">
      <stop offset="0%" style="stop-color:#fed7aa;stop-opacity:1" />
      <stop offset="100%" style="stop-color:#fb923c;stop-opacity:1" />
    </linearGradient>
    <linearGradient id="hair2" x1="0%" y1="0%" x2="100%" y2="100%">
      <stop offset="0%" style="stop-color:#374151;stop-opacity:1" />
      <stop offset="100%" style="stop-color:#111827;stop-opacity:1" />
    </linearGradient>
  </defs>
  <circle cx="32" cy="32" r="32" fill="url(#bg2)"/>
  
  <!-- Face Shape - More realistic -->
  <ellipse cx="32" cy="30" rx="13" ry="16" fill="url(#skin2)"/>
  
  <!-- Hair - Short professional cut -->
  <path d="M19 15c0-6 4-10 13-10s13 4 13 10c0 2-1 4-2 6l-1 2c-1 1-2 1-3 1s-2 0-3-1l-1-2c-1-2-2-4-2-6z" fill="url(#hair2)"/>
  <path d="M21 20c0-2 2-3 11-3s11 1 11 3" stroke="#111827" stroke-width="0.8" fill="none"/>
  
  <!-- Eyes - Natural shape -->
  <ellipse cx="28" cy="27" rx="2.2" ry="2.8" fill="#ffffff"/>
  <ellipse cx="36" cy="27" rx="2.2" ry="2.8" fill="#ffffff"/>
  <ellipse cx="28" cy="27" rx="1.3" ry="1.7" fill="#1f2937"/>
  <ellipse cx="36" cy="27" rx="1.3" ry="1.7" fill="#1f2937"/>
  <ellipse cx="28.2" cy="26.5" rx="0.4" ry="0.6" fill="#ffffff"/>
  <ellipse cx="36.2" cy="26.5" rx="0.4" ry="0.6" fill="#ffffff"/>
  
  <!-- Eyebrows - Natural and subtle -->
  <path d="M25 24c0.5-0.5 1.5-0.5 2 0" stroke="#374151" stroke-width="1.2" fill="none" stroke-linecap="round"/>
  <path d="M35 24c0.5-0.5 1.5-0.5 2 0" stroke="#374151" stroke-width="1.2" fill="none" stroke-linecap="round"/>
  
  <!-- Nose - Subtle definition -->
  <ellipse cx="32" cy="31" rx="0.8" ry="1.8" fill="#fb923c" opacity="0.2"/>
  
  <!-- Lips - Natural color -->
  <ellipse cx="32" cy="35" rx="1.8" ry="0.9" fill="#dc2626" opacity="0.7"/>
  
  <!-- Business Shirt -->
  <path d="M21 47c0-5 4-10 11-10s11 5 11 10v3H21v-3z" fill="#1f2937"/>
  <path d="M24 47c0-3 2-6 8-6s8 3 8 6v1H24v-1z" fill="#374151"/>
  
  <!-- Tie -->
  <rect x="30" y="44" width="4" height="6" fill="#dc2626"/>
  <rect x="31" y="44" width="2" height="1.5" fill="#991b1b"/>
  
  <!-- Glasses - Subtle frame -->
  <circle cx="28" cy="27" r="4" fill="none" stroke="#6b7280" stroke-width="1" opacity="0.7"/>
  <circle cx="36" cy="27" r="4" fill="none" stroke="#6b7280" stroke-width="1" opacity="0.7"/>
  <line x1="32" y1="27" x2="32" y2="27" stroke="#6b7280" stroke-width="1" opacity="0.7"/>
</svg>
